Cover Image: 
http://www.shotpix.com/images/87310173821040242717.jpg

Format : AVI
Format/Info : Audio Video Interleave
File size : 1.35 GiB
Duration : 1h 46mn
Overall bit rate : 1 809 Kbps
Writing library : VirtualDub build 32842/release

Video
ID : 0
Format : MPEG-4 Visual
Format profile : Advanced Simple@L5
Format settings, BVOP : 2
Format settings, QPel : No
Format settings, GMC : No warppoints
Format settings, Matrix : Default (H.263)
Muxing mode : Packed bitstream
Codec ID : XVID
Codec ID/Hint : XviD
Duration : 1h 46mn
Bit rate : 1 672 Kbps
Width : 624 pixels
Height : 262 pixels
Display aspect ratio : 2.40:1
Frame rate : 24.000 fps
Color space : YUV
Chroma subsampling : 4:2:0
Bit depth : 8 bits
Scan type : Progressive
Compression mode : Lossy
Bits/(Pixel*Frame) : 0.426
Stream size : 1.25 GiB (92%)
Writing library : XviD 64

Audio
ID : 1
Format : MPEG Audio
Format version : Version 1
Format profile : Layer 3
Mode : Joint stereo
Mode extension : MS Stereo
Codec ID : 55
Codec ID/Hint : MP3
Duration : 1h 46mn
Bit rate mode : Constant
Bit rate : 128 Kbps
Channel(s) : 2 channels
Sampling rate : 44.1 KHz
Compression mode : Lossy
Stream size : 97.9 MiB (7%)
Alignment : Split accross interleaves
Interleave, duration : 42 ms (1.00 video frame)
Interleave, preload duration : 500 ms
Writing library : LAME3.98r
Encoding settings : -m j -V 4 -q 2 -lowpass 17 -b 128


Ratings: 4.7/10 from 21,422 users Metascore: 45/100
Reviews: 228 user | 161 critic | 36 from Metacritic.com

The Quileute and the Volturi close in on expecting parents Edward and Bella, whose unborn child poses different threats to the wolf pack and vampire coven.
Director:
Bill Condon
Writers:
Melissa Rosenberg (screenplay), Stephenie Meyer (novel)
Stars:
Kristen Stewart, Robert Pattinson and Taylor Lautner
 
http://img85.imageshack.us/img85/9373/vlcsnap2011112412h18m15.png 
http://img190.imageshack.us/img190/8884/vlcsnap2011112412h20m20.png 
http://img690.imageshack.us/img690/909/vlcsnap2011112413h41m09.png


Check out the sample thats why its got one

Vid is way more than watchable plenty of blah blah filters but sample sample is my advise

Enjoy

Greetz to IMAGiNE,Flawl3ss,EMBER,ETRG,BHRG,iLLUMiNATi,MiSTERE

Our FB fanpage: 
